<svg xmlns="http://www.w3.org/2000/svg" xmlns:xlink="http://www.w3.org/1999/xlink" width="500" zoomAndPan="magnify" viewBox="0 0 375 374.999991" height="500" preserveAspectRatio="xMidYMid meet" version="1.0"><defs><clipPath id="0b75612dc6"><path d="M 126.734375 180.289062 L 256.613281 180.289062 L 256.613281 310 L 126.734375 310 Z M 126.734375 180.289062 " clip-rule="nonzero"/></clipPath><clipPath id="5558e2cec0"><path d="M 35.949219 65.058594 L 339 65.058594 L 339 289.820312 L 35.949219 289.820312 Z M 35.949219 65.058594 " clip-rule="nonzero"/></clipPath></defs><g clip-path="url(#0b75612dc6)"><path fill="#da8cff" d="M 237.410156 199.28125 C 225.160156 187.03125 208.890625 180.289062 191.558594 180.289062 C 174.246094 180.289062 157.953125 187.03125 145.726562 199.28125 C 133.496094 211.53125 126.734375 227.804688 126.734375 245.113281 C 126.734375 262.425781 133.476562 278.71875 145.726562 290.945312 C 157.976562 303.175781 174.246094 309.9375 191.558594 309.9375 C 208.867188 309.9375 225.160156 303.195312 237.390625 290.945312 C 249.640625 278.695312 256.382812 262.425781 256.382812 245.113281 C 256.382812 227.804688 249.640625 211.53125 237.410156 199.28125 Z M 132.113281 247.773438 L 157.316406 247.773438 C 157.570312 256.832031 159.207031 265.488281 162.144531 273.550781 L 139.28125 273.550781 C 135.070312 265.828125 132.519531 257.066406 132.113281 247.773438 Z M 194.214844 211.382812 L 194.214844 188.097656 C 197.109375 190.394531 201.191406 194.074219 205.273438 199.304688 C 207.785156 202.515625 210.464844 206.535156 212.867188 211.382812 Z M 215.25 216.703125 C 218.078125 223.824219 220.164062 232.398438 220.480469 242.476562 L 194.214844 242.476562 L 194.214844 216.703125 Z M 188.898438 188.097656 L 188.898438 211.363281 L 170.183594 211.363281 C 172.265625 207.195312 174.753906 203.21875 177.691406 199.472656 C 181.816406 194.179688 185.984375 190.4375 188.898438 188.097656 Z M 188.898438 216.703125 L 188.898438 242.476562 L 162.632812 242.476562 C 162.910156 233.269531 164.652344 224.65625 167.800781 216.703125 Z M 157.316406 242.457031 L 132.113281 242.457031 C 132.519531 233.164062 135.070312 224.398438 139.28125 216.679688 L 162.144531 216.679688 C 159.207031 224.742188 157.59375 233.394531 157.316406 242.457031 Z M 162.632812 247.773438 L 188.898438 247.773438 L 188.898438 273.550781 L 167.863281 273.550781 C 165.035156 266.425781 162.953125 257.832031 162.632812 247.773438 Z M 188.898438 278.867188 L 188.898438 302.132812 C 186.007812 299.835938 181.921875 296.15625 177.839844 290.925781 C 175.328125 287.714844 172.648438 283.695312 170.246094 278.84375 L 188.898438 278.84375 Z M 194.214844 302.132812 L 194.214844 278.867188 L 212.929688 278.867188 C 210.847656 283.035156 208.359375 287.011719 205.421875 290.753906 C 201.296875 296.050781 197.152344 299.816406 194.214844 302.132812 Z M 194.214844 273.550781 L 194.214844 247.773438 L 220.480469 247.773438 C 220.203125 256.980469 218.460938 265.59375 215.3125 273.550781 Z M 225.820312 247.773438 L 251.023438 247.773438 C 250.617188 257.066406 248.066406 265.828125 243.855469 273.550781 L 220.96875 273.550781 C 223.925781 265.488281 225.542969 256.855469 225.820312 247.773438 Z M 225.820312 242.457031 C 225.5625 233.394531 223.925781 224.742188 220.992188 216.679688 L 243.855469 216.679688 C 248.066406 224.398438 250.617188 233.140625 251.023438 242.457031 Z M 240.558594 211.382812 L 218.800781 211.382812 C 216.3125 205.917969 213.1875 200.75 209.464844 196.027344 C 206.230469 191.925781 203.019531 188.671875 200.277344 186.265625 C 216.949219 188.714844 231.371094 198.09375 240.558594 211.382812 Z M 182.835938 186.246094 C 180.09375 188.671875 176.882812 191.902344 173.648438 196.007812 C 169.929688 200.75 166.800781 205.898438 164.3125 211.363281 L 142.578125 211.363281 C 151.742188 198.09375 166.183594 188.714844 182.835938 186.246094 Z M 142.578125 278.867188 L 164.335938 278.867188 C 166.824219 284.332031 169.949219 289.480469 173.671875 294.222656 C 176.902344 298.328125 180.113281 301.582031 182.859375 303.984375 C 166.183594 301.539062 151.742188 292.136719 142.578125 278.867188 Z M 200.296875 303.984375 C 203.042969 301.558594 206.253906 298.328125 209.484375 294.222656 C 213.207031 289.480469 216.335938 284.332031 218.824219 278.867188 L 240.578125 278.867188 C 231.371094 292.136719 216.949219 301.539062 200.296875 303.984375 Z M 200.296875 303.984375 " fill-opacity="1" fill-rule="nonzero"/></g><g clip-path="url(#5558e2cec0)"><path fill="#da8cff" d="M 103.03125 287.539062 C 100.082031 284.929688 97.300781 283.804688 94.734375 284.191406 C 92.613281 284.511719 92.597656 284.503906 92.703125 283.117188 C 92.839844 281.3125 91.15625 278.957031 89.117188 278.097656 C 87.359375 277.355469 81.382812 277.207031 78.246094 277.828125 C 76.222656 278.226562 76.222656 278.226562 82 263.75 C 85.175781 255.785156 88.1875 247.542969 88.695312 245.429688 C 89.199219 243.3125 90.09375 239.515625 90.683594 236.984375 C 91.773438 232.316406 93.183594 229.21875 94.941406 227.628906 C 95.757812 226.886719 95.875 226.320312 95.675781 223.996094 C 95.542969 222.480469 95.640625 220.710938 95.890625 220.058594 C 96.269531 219.0625 96.128906 218.695312 94.992188 217.738281 C 89.6875 213.277344 88.589844 202.34375 92.636719 194.363281 C 94.066406 191.539062 97.503906 187.890625 99.207031 187.378906 C 100.195312 187.085938 100.238281 186.707031 100.574219 175.289062 C 100.964844 161.964844 100.464844 140.113281 99.769531 140.113281 C 99.375 140.113281 44.96875 120.574219 39.582031 118.5 C 36.742188 117.40625 35.949219 116.507812 35.949219 114.390625 C 35.949219 113.039062 36.238281 112.34375 37.039062 111.769531 C 37.640625 111.339844 49.027344 107.320312 62.347656 102.839844 C 75.664062 98.363281 93.863281 92.148438 102.789062 89.039062 C 127.578125 80.390625 129.328125 79.851562 149.042969 74.757812 C 159.167969 72.144531 171.507812 68.949219 176.464844 67.65625 L 185.484375 65.3125 L 196.566406 68.636719 C 218.378906 75.179688 237.023438 80.683594 256.808594 86.421875 C 281.398438 93.550781 314.246094 103.207031 327.28125 107.136719 C 337.539062 110.226562 338.664062 110.855469 338.664062 113.476562 C 338.664062 114.214844 338.28125 115.269531 337.816406 115.820312 C 337.339844 116.382812 327.855469 120.71875 316.144531 125.734375 C 288.257812 137.675781 261.503906 149.351562 261.007812 149.804688 C 260.550781 150.21875 261.636719 159.273438 263.382812 169.625 C 264.03125 173.46875 264.558594 176.664062 264.558594 176.722656 C 264.558594 176.886719 255.976562 182.960938 249.0625 187.691406 C 234.8125 197.441406 220.007812 205.578125 204.984375 211.917969 C 191.113281 217.773438 192.589844 217.429688 187.914062 215.894531 C 169.648438 209.902344 152.742188 202.214844 135.59375 192.105469 C 120.171875 183.015625 110.054688 176.828125 110.054688 176.492188 C 110.054688 176.285156 110.589844 173.191406 111.246094 169.617188 C 112.246094 164.195312 114.175781 150.675781 114.554688 146.496094 C 114.636719 145.5625 114.261719 145.214844 112.402344 144.5 C 110.148438 143.636719 110.148438 143.636719 109.871094 146.113281 C 109.71875 147.476562 109.445312 157.125 109.269531 167.554688 C 108.945312 186.515625 108.945312 186.515625 110.398438 187.265625 C 112.640625 188.425781 116.492188 192.960938 117.488281 195.609375 C 118.066406 197.15625 118.46875 199.863281 118.628906 203.320312 C 118.917969 209.566406 118.019531 212.6875 115.035156 215.765625 C 113.394531 217.460938 113.335938 217.628906 113.921875 219.042969 C 114.277344 219.910156 114.429688 221.46875 114.285156 222.773438 C 114.050781 224.859375 114.175781 225.195312 116.105469 227.5625 C 117.25 228.964844 118.421875 230.839844 118.714844 231.730469 C 119.578125 234.347656 122.714844 251.582031 122.710938 253.671875 C 122.710938 254.726562 123.121094 256.578125 123.625 257.789062 C 124.617188 260.160156 132.332031 280.035156 132.332031 280.222656 C 132.332031 280.28125 130.101562 280.332031 127.371094 280.332031 C 122.40625 280.332031 122.40625 280.332031 117.320312 282.796875 C 114.523438 284.152344 110.757812 286.167969 108.957031 287.277344 C 105.042969 289.683594 105.429688 289.667969 103.03125 287.539062 Z M 106.996094 285.039062 C 108.066406 284.359375 108.476562 282.292969 109.09375 274.519531 C 109.433594 270.257812 109.867188 266.335938 110.0625 265.800781 C 110.511719 264.582031 111.183594 274.765625 110.949219 279.246094 C 110.855469 281.042969 110.890625 282.511719 111.023438 282.507812 C 112.332031 282.460938 112.433594 281.511719 112.011719 273.292969 C 111.769531 268.640625 111.46875 260.910156 111.339844 256.117188 L 111.105469 247.398438 L 112.515625 256.601562 C 113.289062 261.660156 114.066406 269.125 114.242188 273.1875 C 114.417969 277.25 114.691406 280.570312 114.851562 280.566406 C 116.511719 280.523438 116.300781 274.121094 114.152344 259.507812 C 113.007812 251.722656 112.949219 251.246094 113.1875 251.757812 C 113.617188 252.671875 116.28125 266.78125 117.144531 272.703125 C 117.695312 276.503906 118.214844 278.636719 118.585938 278.636719 C 119.332031 278.636719 118.714844 274.027344 115.121094 252.726562 C 114.953125 251.730469 115.191406 252.035156 115.875 253.695312 C 117.15625 256.796875 119.441406 266.035156 120.546875 272.574219 C 121.332031 277.214844 122.003906 278.617188 122.820312 277.296875 C 122.945312 277.089844 122.214844 273.441406 121.195312 269.183594 C 117.953125 255.652344 117.320312 252.804688 117.503906 252.621094 C 117.734375 252.390625 120.507812 260.339844 123.410156 269.539062 C 125.144531 275.042969 125.875 276.738281 126.609375 276.96875 C 128.113281 277.445312 128.078125 277.207031 125.757812 271.34375 C 124.554688 268.296875 122.398438 262.53125 120.964844 258.539062 C 119.53125 254.542969 117.015625 247.785156 115.375 243.523438 C 109.355469 227.90625 109.886719 229.652344 110.742188 228.199219 C 111.878906 226.28125 111.695312 225.824219 110.117188 226.613281 C 106.960938 228.1875 101.214844 228.542969 99.617188 227.261719 C 99.296875 227.007812 98.382812 227.761719 97.195312 229.265625 C 95.0625 231.953125 94.25 233.6875 96.1875 231.414062 C 97.542969 229.824219 97.886719 230.074219 96.746094 231.816406 C 96.351562 232.417969 95.183594 235.734375 94.15625 239.183594 C 92.253906 245.558594 88.609375 255.511719 83.714844 267.707031 C 82.226562 271.417969 81.097656 274.542969 81.207031 274.652344 C 81.316406 274.761719 81.84375 274.714844 82.378906 274.542969 C 83.503906 274.1875 83.601562 273.9375 88.292969 259.507812 C 91.800781 248.703125 95.472656 238.707031 95.804688 239.042969 C 95.90625 239.144531 95.421875 241.28125 94.726562 243.796875 C 91.210938 256.570312 90.007812 261.007812 88.496094 266.800781 C 87.589844 270.28125 86.707031 273.496094 86.53125 273.945312 C 86.300781 274.546875 86.476562 274.765625 87.195312 274.765625 C 87.972656 274.765625 88.242188 274.339844 88.5 272.707031 C 89.519531 266.316406 96.3125 241.871094 96.457031 244.078125 C 96.476562 244.382812 95.195312 251.464844 93.605469 259.8125 C 91.054688 273.234375 90.644531 276.925781 91.839844 275.699219 C 91.953125 275.585938 93.269531 268.984375 94.769531 261.027344 C 97.546875 246.265625 99.824219 235.796875 100.175781 236.148438 C 100.632812 236.601562 96.515625 263.425781 94.121094 275.613281 C 93.898438 276.746094 93.863281 277.671875 94.039062 277.671875 C 94.214844 277.671875 94.609375 276.308594 94.917969 274.644531 C 95.226562 272.976562 96.363281 267.039062 97.441406 261.445312 C 98.523438 255.851562 99.84375 247.847656 100.382812 243.65625 C 100.917969 239.46875 101.449219 235.761719 101.5625 235.421875 C 101.671875 235.085938 102.007812 233.554688 102.3125 232.023438 C 102.765625 229.703125 103.027344 229.238281 103.863281 229.238281 C 104.824219 229.238281 104.851562 229.40625 104.539062 233.230469 C 103.917969 240.816406 100.738281 259.21875 97.492188 274.03125 C 95.777344 281.855469 95.898438 281.0625 96.417969 281.0625 C 96.808594 281.0625 98.71875 274.792969 100.628906 267.257812 C 101.101562 265.394531 101.667969 263.664062 101.882812 263.417969 C 102.851562 262.324219 100.785156 275.105469 99.414062 278.714844 C 98.539062 281.023438 98.539062 281.085938 99.445312 281.570312 C 99.953125 281.839844 100.367188 281.941406 100.367188 281.792969 C 100.367188 281.644531 101.238281 277.222656 102.300781 271.96875 C 103.363281 266.714844 104.554688 259.796875 104.949219 256.601562 C 105.667969 250.789062 105.667969 250.789062 105.464844 258.78125 C 105.335938 263.902344 104.820312 269.707031 104.03125 274.9375 C 103.355469 279.429688 102.917969 283.300781 103.066406 283.535156 C 103.75 284.644531 104.140625 283.558594 104.925781 278.273438 C 105.394531 275.144531 106.058594 270.839844 106.402344 268.710938 C 107.03125 264.835938 107.03125 264.835938 107.085938 269.921875 C 107.140625 274.816406 106.597656 281.414062 105.917969 284.121094 C 105.589844 285.425781 105.9375 285.71875 106.996094 285.039062 Z M 107.074219 240.375 C 106.910156 239.976562 106.546875 237.796875 106.269531 235.53125 C 105.992188 233.265625 105.617188 230.921875 105.433594 230.324219 C 105.1875 229.53125 105.292969 229.234375 105.820312 229.234375 C 106.300781 229.234375 107.046875 230.753906 108.054688 233.800781 C 109.652344 238.621094 110.117188 241.84375 108.613281 237.710938 L 107.738281 235.289062 L 107.554688 238.195312 C 107.453125 239.792969 107.238281 240.773438 107.074219 240.375 Z M 117.265625 238.410156 C 116.453125 235.097656 115.242188 231.4375 114.574219 230.285156 C 112.855469 227.320312 112.757812 227.992188 114.40625 231.425781 C 115.171875 233.015625 115.929688 234.863281 116.085938 235.53125 C 116.246094 236.195312 115.742188 235.433594 114.964844 233.835938 C 114.191406 232.238281 113.210938 230.492188 112.789062 229.960938 C 111.492188 228.324219 111.90625 230.003906 113.410156 232.472656 C 114.191406 233.753906 115.644531 237.039062 116.640625 239.765625 C 117.636719 242.496094 118.519531 244.664062 118.597656 244.585938 C 118.675781 244.507812 118.074219 241.726562 117.265625 238.410156 Z M 107.257812 226.015625 C 112.578125 224.523438 113.761719 219.75 109.460938 217.128906 C 105.007812 214.414062 97.101562 218.683594 98.234375 223.1875 C 98.539062 224.414062 98.539062 224.414062 99.332031 222.828125 C 99.878906 221.738281 100.957031 220.832031 102.789062 219.925781 C 105.859375 218.410156 107.097656 218.160156 104.96875 219.488281 C 101.785156 221.472656 99.367188 225.136719 100.5 226.265625 C 101.273438 227.042969 103.957031 226.945312 107.257812 226.015625 Z M 102.269531 215.15625 C 105.480469 213.9375 107.9375 213.851562 109.949219 214.890625 C 111.402344 215.644531 111.507812 215.632812 112.488281 214.585938 C 115.25 211.628906 115.625 210.4375 115.625 204.53125 C 115.621094 195.15625 112.589844 190.417969 105.871094 189.300781 C 101.109375 188.507812 96.632812 191.597656 94.5625 197.101562 C 92.101562 203.648438 93.609375 212.773438 97.550781 215.175781 C 99.5 216.363281 99.09375 216.363281 102.269531 215.152344 Z M 98.234375 212.734375 C 95.34375 209.300781 94.609375 200.300781 96.871094 196.058594 C 98.078125 193.785156 98.253906 193.992188 97.21875 196.464844 C 96.289062 198.691406 96.296875 201.636719 97.238281 205.277344 C 97.984375 208.15625 100.6875 213.25 101.46875 213.25 C 101.691406 213.25 101.742188 213.46875 101.578125 213.734375 C 101.003906 214.664062 99.476562 214.207031 98.234375 212.734375 Z M 102.355469 208.769531 C 102.386719 206.308594 102.554688 202.984375 102.734375 201.386719 C 103.039062 198.652344 103.078125 198.824219 103.429688 204.289062 C 103.632812 207.488281 103.925781 210.8125 104.074219 211.675781 C 104.3125 213.042969 104.214844 213.25 103.328125 213.25 C 102.355469 213.25 102.308594 213.023438 102.355469 208.769531 Z M 105.433594 205.382812 C 105.957031 196.546875 106.5625 197.5 106.628906 207.265625 C 106.664062 212.472656 106.460938 213.234375 105.050781 213.253906 C 105.003906 213.253906 105.175781 209.710938 105.433594 205.382812 Z M 108.15625 204.640625 C 108.207031 194.28125 109.027344 195.023438 109.429688 205.789062 C 109.65625 211.789062 109.59375 212.65625 108.902344 212.917969 C 108.195312 213.191406 108.121094 212.363281 108.15625 204.640625 Z M 112.863281 207.058594 C 113.054688 203.074219 112.527344 197.777344 111.71875 195.574219 C 111.476562 194.914062 111.523438 194.757812 111.859375 195.089844 C 113.0625 196.261719 114.414062 201.28125 114.414062 204.566406 C 114.414062 207.386719 113.496094 211.3125 112.835938 211.3125 C 112.742188 211.3125 112.753906 209.398438 112.863281 207.058594 Z M 198.816406 211.753906 C 217.675781 203.910156 234.027344 194.566406 255.78125 179.203125 C 258.277344 177.441406 260.5 175.933594 260.714844 175.855469 C 260.933594 175.777344 260.875 174.625 260.589844 173.292969 C 260.300781 171.960938 259.484375 166.511719 258.773438 161.183594 C 258.035156 155.640625 257.289062 151.601562 257.027344 151.738281 C 256.199219 152.175781 257.195312 165.125 258.566406 171.804688 C 258.945312 173.648438 259.085938 175.304688 258.878906 175.484375 C 257.46875 176.710938 238.394531 189.117188 232.976562 192.335938 C 224.667969 197.265625 212.175781 203.730469 200.980469 208.890625 L 192.375 212.859375 L 183.144531 209.398438 C 169.425781 204.253906 163.441406 201.621094 149.40625 194.570312 C 142.414062 191.058594 136.691406 188.242188 136.691406 188.316406 C 136.691406 188.6875 152.226562 197.542969 157.277344 200.050781 C 166.523438 204.636719 189.816406 214.042969 192.277344 214.183594 C 192.617188 214.207031 195.558594 213.109375 198.816406 211.753906 Z M 191.863281 200.164062 C 194.09375 194.984375 194.265625 184.117188 192.21875 177.894531 L 191.179688 174.746094 L 191.074219 178.863281 C 190.796875 189.457031 189.53125 200.808594 188.242188 204.289062 C 187.484375 206.339844 190.867188 202.488281 191.863281 200.164062 Z M 106.363281 171.71875 C 106.949219 143.007812 107.851562 131.644531 109.925781 126.980469 C 112.800781 120.515625 120.695312 115.605469 132.050781 113.222656 C 141.941406 111.148438 162.878906 109.128906 174.59375 109.121094 C 177.738281 109.121094 179.800781 108.925781 179.800781 108.632812 C 179.800781 107.996094 162.433594 108.003906 153.160156 108.65625 C 126.898438 110.476562 112.792969 115.800781 108.421875 125.542969 C 106.710938 129.359375 106.339844 134.964844 105.90625 163.46875 C 105.648438 180.71875 105.453125 185.160156 104.941406 185.355469 C 104.589844 185.492188 104.203125 185.230469 104.085938 184.78125 C 103.933594 184.195312 103.855469 184.273438 103.8125 185.050781 C 103.769531 185.890625 104.019531 186.140625 104.914062 186.140625 C 106.066406 186.140625 106.066406 186.140625 106.363281 171.730469 Z M 104.214844 156.945312 C 104.164062 138.90625 104.308594 129.9375 104.683594 128.332031 C 107.875 114.667969 122.894531 108.203125 156.066406 106.21875 C 162.246094 105.847656 161.601562 105.820312 150.738281 105.972656 C 128.203125 106.289062 116.289062 109.332031 108.511719 116.75 C 103.824219 121.21875 103.027344 123.429688 103.046875 131.882812 C 103.070312 143.167969 103.894531 183.222656 104.105469 183.222656 C 104.207031 183.222656 104.257812 171.398438 104.21875 156.945312 Z M 209.863281 168.75 C 215.835938 166.117188 226.285156 161.511719 233.078125 158.515625 C 244.835938 153.332031 258.210938 147.539062 311.511719 124.566406 C 324.417969 119.003906 335.195312 114.234375 335.464844 113.964844 C 336.265625 113.164062 335.050781 112.378906 331.269531 111.261719 C 294.695312 100.453125 275.621094 94.839844 263.105469 91.203125 C 254.714844 88.761719 241.527344 84.910156 233.804688 82.636719 C 226.078125 80.363281 217.140625 77.746094 213.945312 76.820312 C 210.75 75.894531 203.179688 73.628906 197.125 71.785156 C 191.074219 69.941406 185.808594 68.433594 185.425781 68.433594 C 185.046875 68.433594 172.5 71.601562 157.546875 75.472656 C 129.246094 82.804688 130.402344 82.445312 87.53125 97.261719 C 79.539062 100.023438 65.3125 104.847656 55.910156 107.976562 C 42.675781 112.386719 38.855469 113.835938 38.964844 114.414062 C 39.0625 114.914062 45.488281 117.476562 58.71875 122.292969 C 69.503906 126.21875 82.90625 131.109375 88.5 133.160156 C 94.09375 135.210938 98.972656 136.996094 99.34375 137.128906 C 99.882812 137.316406 99.96875 136.804688 99.777344 134.5 C 98.359375 117.5625 110.015625 107.351562 134.269531 104.289062 C 144.429688 103.007812 163.609375 103.246094 176.074219 104.808594 C 179.859375 105.28125 179.859375 105.28125 181.242188 103.800781 C 186.429688 98.246094 198.6875 101.003906 198.6875 107.726562 C 198.6875 114.191406 189.789062 117.039062 183.324219 112.640625 C 181.496094 111.398438 181.496094 111.398438 171.890625 111.71875 C 133.875 112.980469 117.496094 117.390625 112.5 127.714844 C 111.324219 130.148438 110.402344 135.613281 110.632812 138.792969 C 110.777344 140.796875 110.828125 140.851562 113.445312 141.757812 C 117.003906 142.992188 180.9375 166.921875 190.453125 170.582031 C 194.582031 172.171875 198.195312 173.484375 198.480469 173.503906 C 198.765625 173.527344 203.886719 171.382812 209.863281 168.75 Z M 185.855469 164.132812 C 161.519531 155.003906 142.503906 147.703125 142.660156 147.546875 C 142.945312 147.261719 188.382812 163.375 196.144531 166.511719 C 198.246094 167.359375 198.886719 168.238281 197.355469 168.167969 C 196.890625 168.144531 191.714844 166.332031 185.855469 164.132812 Z M 199.773438 167.136719 C 200 166.457031 205.109375 164.207031 230.898438 153.457031 C 259.851562 141.386719 258.164062 142.59375 226.054688 156.921875 C 202.054688 167.632812 199.242188 168.722656 199.773438 167.136719 Z M 212.25 134.535156 C 226.199219 129.136719 231.441406 125.105469 231.992188 119.363281 C 232.34375 115.679688 230.171875 112.265625 225.8125 109.652344 C 223.65625 108.359375 224.285156 108.328125 226.785156 109.605469 C 237.136719 114.886719 236.058594 124.515625 224.4375 130.585938 C 221.128906 132.3125 213.820312 134.921875 210.796875 135.457031 C 209.691406 135.648438 210.199219 135.332031 212.25 134.535156 Z M 77.359375 125.796875 C 57.714844 118.367188 52.746094 116.375 53.0625 116.058594 C 53.363281 115.757812 64.304688 119.523438 73 122.925781 C 81.65625 126.308594 96.085938 132.285156 96.429688 132.628906 C 96.976562 133.171875 94.710938 132.359375 77.359375 125.796875 Z M 287.574219 130 C 288.386719 129.210938 302.832031 121.984375 307.425781 120.066406 C 312.539062 117.929688 324.203125 113.867188 324.46875 114.132812 C 324.566406 114.234375 323.933594 114.597656 323.058594 114.945312 C 320.226562 116.066406 301.808594 123.964844 294.355469 127.257812 C 290.363281 129.019531 287.3125 130.253906 287.574219 130 Z M 50.585938 113.695312 C 51.089844 113.1875 90.027344 101.335938 90.996094 101.390625 C 91.582031 101.425781 83.628906 104.292969 73.484375 107.699219 C 61.570312 111.703125 49.386719 114.890625 50.585938 113.695312 Z M 239.859375 88.796875 C 228.839844 85.976562 208.640625 80.710938 191.785156 76.269531 C 188.859375 75.496094 187.0625 74.785156 187.0625 74.390625 C 187.0625 74.042969 187.242188 73.761719 187.464844 73.761719 C 188.472656 73.761719 253.476562 91.574219 253.859375 91.957031 C 254.335938 92.433594 252.058594 91.921875 239.859375 88.796875 Z M 163.816406 78.597656 C 169.753906 76.625 181.175781 74.085938 182.886719 74.355469 C 183.453125 74.445312 182.171875 74.914062 180.042969 75.394531 C 177.910156 75.875 172.277344 77.230469 167.527344 78.40625 C 162.773438 79.578125 158.742188 80.519531 158.566406 80.496094 C 158.390625 80.46875 160.753906 79.617188 163.816406 78.597656 Z M 193.980469 111.855469 C 194.839844 111.496094 195.824219 110.859375 196.171875 110.441406 C 196.65625 109.859375 196.363281 109.910156 194.960938 110.640625 C 192.6875 111.832031 189.109375 111.621094 186.171875 110.125 C 183.792969 108.910156 183.027344 107.644531 183.296875 105.367188 C 183.492188 103.664062 183.492188 103.664062 182.617188 104.746094 C 179.179688 108.992188 187.855469 114.417969 193.980469 111.855469 Z M 193.980469 111.855469 " fill-opacity="1" fill-rule="nonzero"/></g></svg>